<?xml version="1.0" standalone="no"?>
<!DOCTYPE svg PUBLIC "-//W3C//DTD SVG 20010904//EN"
 "http://www.w3.org/TR/2001/REC-SVG-20010904/DTD/svg10.dtd">
<svg version="1.0" xmlns="http://www.w3.org/2000/svg"
 width="784.000000pt" height="784.000000pt" viewBox="0 0 784.000000 784.000000"
 preserveAspectRatio="xMidYMid meet">
<metadata>
Created by potrace 1.11, written by Peter Selinger 2001-2013
</metadata>
<g transform="translate(0.000000,784.000000) scale(0.100000,-0.100000)"
fill="#000000" stroke="none">
<path d="M3973 7804 c-32 -20 -87 -52 -123 -72 -36 -20 -67 -38 -70 -41 -5 -6
-24 -17 -105 -60 -16 -9 -32 -18 -35 -21 -3 -3 -18 -12 -35 -22 -57 -31 -260
-148 -300 -173 -22 -13 -53 -32 -70 -41 -61 -34 -673 -389 -768 -446 -54 -32
-100 -58 -102 -58 -3 0 -28 -15 -57 -33 -29 -19 -60 -37 -68 -40 -8 -4 -28
-15 -45 -26 -28 -17 -60 -36 -139 -80 -19 -11 -53 -31 -75 -45 -22 -15 -45
-26 -50 -26 -5 0 -11 -3 -13 -7 -2 -5 -16 -15 -33 -24 -16 -8 -86 -48 -154
-87 -68 -40 -127 -72 -131 -72 -5 0 -10 -3 -12 -8 -2 -6 -105 -68 -258 -154
-53 -31 -313 -182 -331 -193 -9 -5 -36 -21 -60 -34 -24 -13 -75 -43 -114 -66
-38 -23 -90 -53 -115 -66 -66 -35 -71 -42 -67 -94 2 -25 0 -48 -5 -51 -5 -3
-5 -10 -2 -16 10 -15 10 -108 1 -108 -5 0 -5 -5 -1 -11 10 -16 11 -109 1 -109
-5 0 -5 -5 -1 -11 10 -16 11 -109 1 -109 -5 0 -5 -5 -1 -11 10 -16 11 -109 1
-109 -5 0 -5 -5 -1 -11 10 -16 11 -109 1 -109 -5 0 -5 -5 -1 -11 10 -16 11
-109 1 -109 -5 0 -5 -5 -1 -11 9 -16 11 -109 1 -109 -4 0 -4 -8 0 -17 5 -10 8
-38 6 -63 -1 -25 -2 -54 -3 -65 0 -11 1 -75 2 -143 2 -67 -1 -122 -5 -122 -5
0 -5 -5 -1 -11 10 -16 11 -149 1 -149 -5 0 -5 -5 -1 -11 10 -16 11 -149 1
-149 -5 0 -5 -5 -1 -11 8 -13 12 -149 4 -149 -5 0 -4 -68 3 -147 2 -24 -1 -43
-5 -43 -5 0 -6 -5 -2 -11 10 -16 11 -109 1 -109 -5 0 -5 -5 -1 -11 10 -16 11
-109 1 -109 -5 0 -5 -5 -1 -11 10 -16 11 -109 1 -109 -5 0 -5 -5 -1 -11 10
-16 11 -109 1 -109 -5 0 -5 -5 -2 -11 10 -15 11 -109 2 -109 -5 0 -5 -5 -1
-11 4 -6 7 -40 8 -74 0 -35 3 -66 6 -68 11 -10 348 -177 358 -177 6 0 12 -3
14 -7 3 -8 2703 -1358 2716 -1358 4 0 7 207 8 460 l1 461 -1137 568 -1137 567
0 888 c-1 489 2 893 6 899 5 9 125 81 221 134 19 11 44 25 55 31 11 7 38 23
60 35 22 13 60 35 85 50 25 15 106 62 180 105 74 43 142 82 150 88 20 12 232
134 290 167 25 14 56 32 70 42 14 9 32 20 40 23 8 4 33 18 55 31 22 14 56 33
75 44 19 11 129 74 243 141 114 66 212 121 217 121 6 0 10 4 10 8 0 5 23 19
50 32 28 13 50 27 50 32 0 4 4 8 9 8 5 0 62 31 127 70 66 38 130 75 144 80 13
6 27 14 30 18 3 4 20 15 38 25 17 9 47 25 65 35 17 9 34 20 35 25 2 4 7 7 12
7 5 0 59 30 121 67 62 36 118 66 124 66 5 0 55 -27 110 -60 109 -64 197 -116
254 -149 20 -11 50 -29 68 -40 18 -10 101 -59 185 -109 84 -49 220 -129 301
-177 81 -48 152 -88 157 -88 6 0 10 -4 10 -10 0 -5 4 -10 10 -10 5 0 65 -33
132 -73 68 -40 173 -102 233 -137 61 -35 112 -66 115 -69 3 -4 30 -19 60 -35
30 -16 66 -38 79 -48 13 -10 27 -18 32 -18 4 0 43 -22 86 -48 43 -27 98 -60
123 -74 51 -28 52 -29 261 -153 83 -49 170 -100 193 -113 22 -13 57 -33 78
-45 20 -12 74 -44 120 -71 45 -27 169 -100 275 -162 105 -63 196 -114 201
-114 6 0 12 -4 14 -8 2 -4 20 -17 41 -29 l37 -22 0 482 0 483 -161 95 c-89 51
-180 105 -203 117 -23 13 -62 37 -87 53 -25 16 -50 29 -54 29 -5 0 -16 6 -24
14 -9 7 -36 25 -61 38 -41 23 -101 58 -424 249 -54 33 -103 59 -107 59 -5 0
-9 5 -9 10 0 6 -6 10 -12 10 -7 0 -41 18 -76 40 -34 22 -64 40 -66 40 -2 0
-33 18 -69 40 -36 21 -159 94 -273 161 -114 67 -220 129 -235 138 -15 9 -70
40 -121 70 -51 30 -101 61 -112 70 -10 9 -20 15 -22 13 -2 -1 -14 4 -27 12
-12 8 -80 48 -152 90 -71 41 -135 80 -142 86 -7 5 -15 10 -19 10 -3 0 -41 21
-83 46 -75 46 -105 64 -178 105 -21 12 -46 28 -55 37 -10 8 -18 12 -18 8 0 -4
-12 1 -27 12 -16 11 -86 54 -158 95 -71 42 -134 80 -140 84 -5 5 -22 13 -37
20 -23 10 -33 8 -85 -23z"/>
<path d="M3960 6491 c0 -5 -20 -51 -44 -102 -24 -52 -82 -177 -129 -279 -47
-102 -102 -221 -122 -265 -20 -44 -48 -105 -62 -135 -14 -30 -45 -97 -69 -148
-24 -51 -44 -94 -44 -96 0 -2 -25 -57 -56 -122 -67 -140 -78 -167 -76 -176 1
-5 -3 -8 -8 -8 -6 0 -10 -5 -10 -10 0 -6 -14 -41 -32 -78 -18 -37 -32 -69 -33
-72 -1 -3 -20 -45 -43 -94 -23 -49 -42 -90 -42 -91 0 -2 -21 -47 -46 -102 -58
-123 -99 -211 -134 -288 -15 -33 -43 -94 -62 -135 -20 -41 -47 -100 -61 -130
-28 -62 -126 -274 -182 -395 -20 -44 -48 -105 -62 -135 -14 -30 -36 -77 -49
-103 -13 -27 -24 -52 -24 -56 0 -9 27 -22 295 -146 116 -54 257 -119 315 -147
57 -27 113 -50 123 -51 20 -2 31 14 83 128 20 44 51 112 69 150 17 39 33 73
34 77 2 7 90 195 142 304 10 22 19 46 19 52 0 7 5 12 10 12 6 0 10 5 10 11 0
5 12 36 26 67 15 31 37 80 49 107 43 95 87 190 116 251 16 34 29 67 29 73 0 6
5 11 10 11 6 0 10 5 10 11 0 5 50 119 111 252 62 133 120 260 129 282 10 22
39 85 65 140 103 219 134 288 132 295 -1 3 8 19 21 37 12 17 22 33 22 36 0 2
8 22 17 43 9 22 17 41 18 44 1 3 19 41 39 85 21 44 48 103 61 130 12 28 36 79
53 115 17 36 51 110 76 164 26 54 45 100 44 101 -2 1 -43 24 -93 51 -49 27
-103 57 -120 66 -16 9 -40 21 -52 27 -12 6 -57 30 -100 54 -43 24 -107 60
-143 79 -36 19 -99 54 -141 77 -80 43 -89 47 -89 32z"/>
<path d="M4811 5837 c-6 -6 -11 -14 -11 -18 0 -10 -136 -305 -171 -371 -11
-21 -17 -38 -13 -38 3 0 2 -6 -4 -12 -9 -12 -142 -295 -142 -304 0 -3 227
-140 260 -157 8 -4 33 -18 55 -32 22 -14 57 -34 77 -45 20 -11 40 -24 43 -30
4 -6 11 -8 16 -5 5 4 9 1 9 -4 0 -6 5 -11 11 -11 6 0 31 -13 56 -30 24 -16 45
-30 47 -30 2 0 57 -32 122 -71 115 -69 167 -100 209 -123 11 -6 31 -19 45 -27
88 -57 401 -239 409 -239 6 0 11 -4 11 -10 0 -5 7 -10 15 -10 8 0 15 -5 15
-12 0 -6 3 -9 6 -5 4 3 21 -4 38 -17 17 -13 38 -26 46 -29 8 -3 100 -57 205
-120 l190 -114 0 -783 c0 -772 0 -783 -20 -797 -34 -23 -86 -56 -190 -118 -55
-33 -103 -63 -106 -68 -3 -5 -13 -9 -22 -11 -9 -1 -24 -9 -34 -18 -10 -8 -38
-27 -63 -40 -42 -24 -196 -116 -230 -138 -8 -5 -33 -19 -55 -31 -22 -12 -42
-25 -45 -28 -3 -4 -25 -19 -50 -32 -25 -14 -161 -96 -303 -182 -142 -87 -260
-157 -262 -157 -4 0 -106 -67 -122 -80 -7 -6 -15 -10 -19 -10 -3 0 -52 -28
-108 -63 -55 -35 -108 -66 -116 -70 -8 -4 -28 -16 -45 -27 -16 -11 -46 -29
-65 -40 -19 -11 -42 -25 -50 -30 -51 -32 -262 -160 -265 -160 -2 0 -40 -23
-86 -51 -123 -76 -169 -101 -169 -89 0 5 -4 10 -9 10 -6 0 -70 29 -143 65 -72
36 -138 65 -145 65 -7 0 -13 5 -13 10 0 6 -4 10 -9 10 -5 0 -108 48 -228 106
-120 58 -272 132 -338 164 -66 32 -196 95 -290 140 -182 88 -420 203 -655 318
-208 100 -509 246 -620 300 -52 26 -97 47 -100 47 -3 1 -95 45 -205 99 -110
54 -265 130 -345 168 -80 39 -157 77 -172 84 l-28 15 0 -463 0 -463 62 -30
c35 -16 65 -30 68 -30 3 -1 34 -16 70 -35 36 -19 67 -35 70 -35 3 -1 61 -29
130 -62 69 -33 199 -97 290 -141 156 -75 269 -130 665 -322 316 -153 454 -220
603 -290 81 -39 154 -75 162 -81 8 -5 22 -12 30 -16 8 -3 75 -35 148 -69 73
-35 137 -64 142 -64 6 0 10 -4 10 -10 0 -5 5 -10 10 -10 6 0 75 -31 155 -70
80 -38 148 -70 153 -70 4 0 14 -6 20 -12 7 -7 16 -13 20 -14 7 0 75 -33 414
-198 l136 -66 234 141 c128 78 274 167 323 197 50 30 110 66 135 80 25 14 56
33 69 44 13 10 29 18 37 18 7 0 14 3 16 8 2 4 17 15 33 25 34 20 169 101 200
120 11 7 39 24 62 40 23 15 44 27 46 27 4 0 206 121 267 160 8 5 33 20 55 33
22 13 179 108 348 210 170 103 312 187 317 187 5 0 10 4 12 8 2 4 41 30 86 57
98 58 76 45 357 215 121 73 232 140 247 149 28 17 211 128 239 146 9 5 35 20
57 32 22 13 44 28 49 35 4 7 8 576 9 1264 l0 1251 -140 83 c-78 46 -159 95
-181 109 -22 14 -46 26 -54 27 -8 2 -17 7 -20 12 -3 5 -100 64 -216 131 -115
68 -222 132 -237 142 -14 11 -28 19 -31 19 -2 0 -80 45 -172 100 -91 55 -171
100 -176 100 -5 0 -9 5 -9 10 0 6 -4 10 -10 10 -9 0 -102 54 -170 98 -14 9
-27 17 -30 17 -3 0 -16 8 -30 17 -14 8 -109 66 -212 127 -247 147 -249 148
-278 164 -14 7 -86 50 -160 94 -74 44 -146 86 -160 94 -14 8 -27 16 -30 19
-19 19 -48 28 -59 17z"/>
</g>
</svg>
