<?xml version="1.0" encoding="UTF-8" standalone="no"?>
<svg
   xmlns:dc="http://purl.org/dc/elements/1.1/"
   xmlns:cc="http://creativecommons.org/ns#"
   xmlns:rdf="http://www.w3.org/1999/02/22-rdf-syntax-ns#"
   xmlns:svg="http://www.w3.org/2000/svg"
   xmlns="http://www.w3.org/2000/svg"
   id="svg4466"
   version="1.1"
   viewBox="0 0 21.779442 25.969206"
   height="25.969206mm"
   width="21.779442mm">
  <defs
     id="defs4460">
    <clipPath
       clipPathUnits="userSpaceOnUse"
       id="clipPath18">
      <path
         d="M 0,360 H 504 V 0 H 0 Z"
         id="path16" />
    </clipPath>
  </defs>
  <metadata
     id="metadata4463">
    <rdf:RDF>
      <cc:Work
         rdf:about="">
        <dc:format>image/svg+xml</dc:format>
        <dc:type
           rdf:resource="http://purl.org/dc/dcmitype/StillImage" />
        <dc:title></dc:title>
      </cc:Work>
    </rdf:RDF>
  </metadata>
  <g
     transform="translate(-59.774506,-103.34278)"
     id="layer1">
    <g
       transform="matrix(0.35277777,0,0,-0.35277777,23.203446,187.00272)"
       id="g12">
      <g
         id="g4782">
        <g
           transform="translate(135.605,228.1113)"
           id="g154">
          <path
             id="path156"
             style="fill:#00a1ff;fill-opacity:1;fill-rule:nonzero;stroke:none"
             d="M 0,0 29.798,-17.527 V -8.48 L 0.021,9.035 -31.831,-9.484 v -26.101 l 29.138,-14.569 v 8.719 l -21.341,10.67 v 16.792 z" />
        </g>
        <g
           transform="translate(142.957,218.4648)"
           id="g158">
          <path
             id="path160"
             style="fill:#1c1c1c;fill-opacity:1;fill-rule:nonzero;stroke:none"
             d="m 0,0 -3.289,-7.114 17.721,-10.515 v -14.748 l -22.627,-13.689 -31.096,15.069 v -8.666 l 31.507,-15.269 30.013,18.157 v 23.593 z" />
        </g>
        <g
           transform="translate(134.9932,224.5898)"
           id="g162">
          <path
             id="path164"
             style="fill:#1c1c1c;fill-opacity:1;fill-rule:nonzero;stroke:none"
             d="M 0,0 -13.161,-28.533 -6.09,-31.822 6.857,-3.753 Z" />
        </g>
      </g>
    </g>
  </g>
</svg>
