<?xml version="1.0" encoding="UTF-8" standalone="no"?>
<svg
   xmlns:dc="http://purl.org/dc/elements/1.1/"
   xmlns:cc="http://creativecommons.org/ns#"
   xmlns:rdf="http://www.w3.org/1999/02/22-rdf-syntax-ns#"
   xmlns:svg="http://www.w3.org/2000/svg"
   xmlns="http://www.w3.org/2000/svg"
   version="1.1"
   id="svg2"
   xml:space="preserve"
   width="462.44693"
   height="98.151329"
   viewBox="0 0 462.44693 98.151329"><metadata
     id="metadata8"><rdf:RDF><cc:Work
         rdf:about=""><dc:format>image/svg+xml</dc:format><dc:type
           rdf:resource="http://purl.org/dc/dcmitype/StillImage" /><dc:title></dc:title></cc:Work></rdf:RDF></metadata><defs
     id="defs6"><clipPath
       clipPathUnits="userSpaceOnUse"
       id="clipPath18"><path
         d="M 0,360 H 504 V 0 H 0 Z"
         id="path16" /></clipPath></defs><g
     id="g10"
     transform="matrix(1.3333333,0,0,-1.3333333,-138.22133,316.19506)"><g
       id="g12"><g
         id="g14"
         clip-path="url(#clipPath18)"><g
           id="g20"
           transform="translate(179.9819,187.0938)"><path
             d="m 0,0 c -1.773,2.586 -2.659,6.159 -2.659,10.718 v 15.52 c 0,4.812 0.868,8.466 2.604,10.963 1.737,2.496 4.812,3.744 9.226,3.744 3.943,0 6.774,-1.067 8.493,-3.202 1.718,-2.135 2.578,-5.282 2.578,-9.442 v -3.473 h -5.807 v 3.093 c 0,2.025 -0.091,3.582 -0.271,4.667 -0.182,1.085 -0.643,1.954 -1.384,2.604 -0.742,0.652 -1.926,0.978 -3.555,0.978 -1.664,0 -2.903,-0.354 -3.717,-1.059 C 4.694,34.406 4.16,33.429 3.907,32.181 3.654,30.933 3.527,29.259 3.527,27.161 V 9.741 C 3.527,7.498 3.708,5.743 4.07,4.478 4.431,3.21 5.02,2.307 5.833,1.764 6.647,1.221 7.778,0.95 9.225,0.95 c 1.555,0 2.714,0.343 3.473,1.03 0.76,0.688 1.24,1.629 1.439,2.823 0.198,1.194 0.298,2.822 0.298,4.884 v 3.256 h 5.807 V 9.687 c 0,-4.378 -0.824,-7.733 -2.47,-10.067 -1.646,-2.333 -4.513,-3.5 -8.601,-3.5 C 4.83,-3.88 1.772,-2.587 0,0"
             style="fill:#00a1ff;fill-opacity:1;fill-rule:nonzero;stroke:none"
             id="path22" /></g><path
           d="m 202.883,227.659 h 5.807 v -43.957 h -5.807 z"
           style="fill:#00a1ff;fill-opacity:1;fill-rule:nonzero;stroke:none"
           id="path24" /><g
           id="g26"
           transform="translate(223.395,202.4248)"><path
             d="M 0,0 V 2.821 C 0,4.956 -0.208,6.484 -0.624,7.407 -1.04,8.33 -1.918,8.791 -3.256,8.791 -4.197,8.791 -4.911,8.574 -5.399,8.14 -5.888,7.706 -6.223,6.991 -6.403,5.996 -6.585,5.001 -6.675,3.563 -6.675,1.682 V 0 Z m -8.846,-17.773 c -1.339,0.922 -2.279,2.288 -2.821,4.097 -0.543,1.809 -0.814,4.16 -0.814,7.055 v 7.163 c 0,4.342 0.678,7.517 2.035,9.524 1.356,2.008 3.771,3.012 7.244,3.012 2.532,0 4.441,-0.524 5.725,-1.573 C 3.808,10.455 4.658,8.981 5.074,7.082 5.49,5.183 5.698,2.622 5.698,-0.598 V -3.147 H -6.675 v -4.179 c 0,-1.882 0.045,-3.293 0.136,-4.234 0.09,-0.941 0.38,-1.727 0.868,-2.36 0.488,-0.634 1.293,-0.95 2.415,-0.95 1.266,0 2.125,0.425 2.578,1.275 0.452,0.85 0.678,2.144 0.678,3.881 v 1.9 h 5.644 v -1.195 c 0,-3.292 -0.706,-5.806 -2.117,-7.543 -1.41,-1.736 -3.654,-2.605 -6.729,-2.605 -2.424,0 -4.305,0.462 -5.644,1.384"
             style="fill:#00a1ff;fill-opacity:1;fill-rule:nonzero;stroke:none"
             id="path28" /></g><g
           id="g30"
           transform="translate(241.249,189.1563)"><path
             d="m 0,0 c 0.723,0.597 1.248,1.167 1.574,1.709 v 8.9 C -0.019,9.668 -1.212,8.936 -2.008,8.411 -2.804,7.887 -3.5,7.181 -4.097,6.295 -4.694,5.408 -4.993,4.368 -4.993,3.175 c 0,-1.303 0.235,-2.307 0.706,-3.012 0.47,-0.706 1.157,-1.059 2.062,-1.059 0.76,0 1.501,0.299 2.225,0.896 m -7.733,-4.857 c -0.959,0.687 -1.71,1.591 -2.252,2.713 -0.543,1.122 -0.814,2.297 -0.814,3.528 0,2.46 0.524,4.458 1.573,5.996 1.049,1.538 2.379,2.749 3.989,3.637 1.61,0.885 3.88,1.925 6.811,3.12 v 2.224 c 0,2.063 -0.209,3.519 -0.624,4.369 -0.417,0.85 -1.258,1.276 -2.524,1.276 -2.207,0 -3.31,-1.485 -3.31,-4.45 v -1.575 l -5.753,0.218 0.054,1.139 c 0.181,3.148 1.059,5.435 2.633,6.865 1.574,1.429 3.825,2.144 6.756,2.144 3.003,0 5.183,-0.824 6.539,-2.469 C 6.702,22.23 7.38,19.744 7.38,16.416 V 2.089 c 0,-2.352 0.181,-4.866 0.543,-7.543 H 2.605 c -0.399,2.062 -0.651,3.6 -0.76,4.612 -0.434,-1.41 -1.185,-2.604 -2.252,-3.581 -1.068,-0.976 -2.434,-1.466 -4.097,-1.466 -1.194,0 -2.271,0.345 -3.229,1.032"
             style="fill:#00a1ff;fill-opacity:1;fill-rule:nonzero;stroke:none"
             id="path32" /></g><g
           id="g34"
           transform="translate(252.0479,215.0693)"><path
             d="m 0,0 h 5.807 v -3.094 c 2.496,2.352 5.047,3.528 7.651,3.528 1.7,0 2.912,-0.616 3.637,-1.845 0.722,-1.231 1.085,-2.75 1.085,-4.559 v -25.397 h -5.807 v 23.715 c 0,1.194 -0.182,2.08 -0.543,2.659 -0.362,0.578 -1.013,0.868 -1.954,0.868 -1.158,0 -2.515,-0.651 -4.069,-1.953 V -31.367 H 0 Z"
             style="fill:#00a1ff;fill-opacity:1;fill-rule:nonzero;stroke:none"
             id="path36" /></g><g
           id="g38"
           transform="translate(291.8799,188.0977)"><path
             d="M 0,0 C 2.134,0 3.681,0.416 4.64,1.248 5.598,2.08 6.195,3.211 6.431,4.64 6.665,6.069 6.783,8.23 6.783,11.125 v 14.272 c 0,2.497 -0.154,4.405 -0.461,5.726 -0.307,1.32 -0.95,2.297 -1.926,2.931 -0.977,0.632 -2.497,0.949 -4.559,0.949 H -3.474 V 0 Z m -9.605,39.562 h 9.55 c 4.74,0 8.095,-1.086 10.068,-3.256 1.97,-2.171 2.957,-5.555 2.957,-10.149 V 9.985 C 12.97,5.137 12.002,1.528 10.066,-0.841 8.131,-3.211 4.92,-4.396 0.434,-4.396 H -9.605 Z"
             style="fill:#1c1c1c;fill-opacity:1;fill-rule:nonzero;stroke:none"
             id="path40" /></g><g
           id="g42"
           transform="translate(320.0986,202.4248)"><path
             d="M 0,0 V 2.821 C 0,4.956 -0.209,6.484 -0.624,7.407 -1.041,8.33 -1.918,8.791 -3.257,8.791 -4.197,8.791 -4.911,8.574 -5.4,8.14 -5.889,7.706 -6.224,6.991 -6.404,5.996 -6.585,5.001 -6.675,3.563 -6.675,1.682 V 0 Z m -8.846,-17.773 c -1.339,0.922 -2.279,2.288 -2.822,4.097 -0.543,1.809 -0.813,4.16 -0.813,7.055 v 7.163 c 0,4.342 0.677,7.517 2.034,9.524 1.357,2.008 3.772,3.012 7.245,3.012 2.532,0 4.44,-0.524 5.725,-1.573 1.284,-1.05 2.134,-2.524 2.55,-4.423 0.416,-1.899 0.625,-4.46 0.625,-7.68 V -3.147 H -6.675 v -4.179 c 0,-1.882 0.045,-3.293 0.135,-4.234 0.09,-0.941 0.38,-1.727 0.869,-2.36 0.488,-0.634 1.293,-0.95 2.414,-0.95 1.267,0 2.125,0.425 2.578,1.275 0.452,0.85 0.679,2.144 0.679,3.881 v 1.9 h 5.644 v -1.195 c 0,-3.292 -0.706,-5.806 -2.117,-7.543 -1.411,-1.736 -3.655,-2.605 -6.729,-2.605 -2.424,0 -4.306,0.462 -5.644,1.384"
             style="fill:#1c1c1c;fill-opacity:1;fill-rule:nonzero;stroke:none"
             id="path44" /></g><g
           id="g46"
           transform="translate(326.7734,215.0693)"><path
             d="M 0,0 H 5.86 L 9.714,-25.235 13.621,0 h 5.644 l -5.97,-31.367 H 6.187 Z"
             style="fill:#1c1c1c;fill-opacity:1;fill-rule:nonzero;stroke:none"
             id="path48" /></g><g
           id="g50"
           transform="translate(358.4111,202.4248)"><path
             d="M 0,0 V 2.821 C 0,4.956 -0.209,6.484 -0.624,7.407 -1.041,8.33 -1.918,8.791 -3.257,8.791 -4.197,8.791 -4.911,8.574 -5.4,8.14 -5.889,7.706 -6.224,6.991 -6.404,5.996 -6.585,5.001 -6.675,3.563 -6.675,1.682 V 0 Z m -8.846,-17.773 c -1.339,0.922 -2.279,2.288 -2.822,4.097 -0.543,1.809 -0.813,4.16 -0.813,7.055 v 7.163 c 0,4.342 0.677,7.517 2.034,9.524 1.357,2.008 3.772,3.012 7.245,3.012 2.532,0 4.44,-0.524 5.725,-1.573 1.284,-1.05 2.134,-2.524 2.55,-4.423 0.416,-1.899 0.625,-4.46 0.625,-7.68 V -3.147 H -6.675 v -4.179 c 0,-1.882 0.045,-3.293 0.135,-4.234 0.09,-0.941 0.38,-1.727 0.869,-2.36 0.488,-0.634 1.293,-0.95 2.414,-0.95 1.267,0 2.125,0.425 2.578,1.275 0.452,0.85 0.679,2.144 0.679,3.881 v 1.9 h 5.644 v -1.195 c 0,-3.292 -0.706,-5.806 -2.117,-7.543 -1.411,-1.736 -3.655,-2.605 -6.729,-2.605 -2.424,0 -4.306,0.462 -5.644,1.384"
             style="fill:#1c1c1c;fill-opacity:1;fill-rule:nonzero;stroke:none"
             id="path52" /></g><path
           d="m 366.658,227.659 h 5.808 v -43.957 h -5.808 z"
           style="fill:#1c1c1c;fill-opacity:1;fill-rule:nonzero;stroke:none"
           id="path54" /><g
           id="g56"
           transform="translate(386.1406,188.4775)"><path
             d="M 0,0 C 0.47,0.615 0.76,1.375 0.868,2.279 0.977,3.184 1.031,4.414 1.031,5.97 v 9.822 c 0,1.556 -0.054,2.795 -0.163,3.718 C 0.76,20.432 0.47,21.2 0,21.815 c -0.471,0.616 -1.23,0.923 -2.279,0.923 -1.05,0 -1.819,-0.307 -2.307,-0.923 C -5.074,21.2 -5.373,20.432 -5.481,19.51 -5.59,18.587 -5.644,17.348 -5.644,15.792 V 5.97 c 0,-1.556 0.054,-2.786 0.163,-3.691 0.108,-0.904 0.407,-1.664 0.895,-2.279 0.488,-0.615 1.257,-0.923 2.307,-0.923 1.049,0 1.808,0.308 2.279,0.923 m -9.361,-2.252 c -1.394,1.972 -2.089,4.838 -2.089,8.602 v 9.117 c 0,3.762 0.695,6.629 2.089,8.601 1.392,1.971 3.753,2.957 7.082,2.957 3.292,0 5.634,-0.986 7.027,-2.957 1.393,-1.972 2.09,-4.839 2.09,-8.601 V 6.35 c 0,-3.764 -0.697,-6.63 -2.09,-8.602 -1.393,-1.973 -3.735,-2.958 -7.027,-2.958 -3.329,0 -5.69,0.985 -7.082,2.958"
             style="fill:#1c1c1c;fill-opacity:1;fill-rule:nonzero;stroke:none"
             id="path58" /></g><g
           id="g60"
           transform="translate(407.6025,189.8613)"><path
             d="m 0,0 c 0.38,1.356 0.57,3.446 0.57,6.269 v 7.596 c 0,2.316 -0.216,4.098 -0.651,5.346 -0.435,1.248 -1.339,1.872 -2.714,1.872 -1.339,0 -2.659,-0.542 -3.961,-1.628 V -0.624 c 1.266,-0.941 2.659,-1.411 4.179,-1.411 1.338,0 2.197,0.679 2.577,2.035 m -12.563,25.208 h 5.807 v -2.497 c 1.7,1.954 3.691,2.931 5.97,2.931 2.857,0 4.765,-1.221 5.724,-3.663 0.958,-2.442 1.439,-5.147 1.439,-8.114 V 6.269 c 0,-3.836 -0.589,-6.939 -1.764,-9.308 -1.176,-2.37 -3.193,-3.555 -6.051,-3.555 -1.845,0 -3.618,0.923 -5.318,2.769 V -16.47 h -5.807 z"
             style="fill:#1c1c1c;fill-opacity:1;fill-rule:nonzero;stroke:none"
             id="path62" /></g><g
           id="g64"
           transform="translate(428.958,202.4248)"><path
             d="M 0,0 V 2.821 C 0,4.956 -0.209,6.484 -0.624,7.407 -1.041,8.33 -1.918,8.791 -3.257,8.791 -4.197,8.791 -4.911,8.574 -5.4,8.14 -5.889,7.706 -6.224,6.991 -6.404,5.996 -6.585,5.001 -6.675,3.563 -6.675,1.682 V 0 Z m -8.846,-17.773 c -1.339,0.922 -2.279,2.288 -2.822,4.097 -0.543,1.809 -0.813,4.16 -0.813,7.055 v 7.163 c 0,4.342 0.677,7.517 2.034,9.524 1.357,2.008 3.772,3.012 7.245,3.012 2.532,0 4.44,-0.524 5.725,-1.573 1.284,-1.05 2.134,-2.524 2.55,-4.423 0.416,-1.899 0.625,-4.46 0.625,-7.68 V -3.147 H -6.675 v -4.179 c 0,-1.882 0.045,-3.293 0.135,-4.234 0.09,-0.941 0.38,-1.727 0.869,-2.36 0.488,-0.634 1.293,-0.95 2.414,-0.95 1.267,0 2.125,0.425 2.578,1.275 0.452,0.85 0.679,2.144 0.679,3.881 v 1.9 h 5.644 v -1.195 c 0,-3.292 -0.706,-5.806 -2.117,-7.543 -1.411,-1.736 -3.655,-2.605 -6.729,-2.605 -2.424,0 -4.306,0.462 -5.644,1.384"
             style="fill:#1c1c1c;fill-opacity:1;fill-rule:nonzero;stroke:none"
             id="path66" /></g><g
           id="g68"
           transform="translate(436.8262,215.0693)"><path
             d="m 0,0 h 5.807 v -4.45 c 1.085,1.772 2.197,3.02 3.337,3.744 1.139,0.724 2.341,1.086 3.609,1.086 0.325,0 0.632,-0.02 0.922,-0.055 V -6.078 C 12.517,-5.645 11.45,-5.427 10.474,-5.427 9.532,-5.427 8.69,-5.653 7.95,-6.105 7.208,-6.559 6.493,-7.345 5.807,-8.466 V -31.367 H 0 Z"
             style="fill:#1c1c1c;fill-opacity:1;fill-rule:nonzero;stroke:none"
             id="path70" /></g><g
           id="g72"
           transform="translate(179.6035,179.3779)"><path
             d="M 0,0 H 6.719 V -1.744 H 2.125 V -4.957 H 6.408 V -6.701 H 2.125 v -4.941 H 0 Z"
             style="fill:#00a1ff;fill-opacity:1;fill-rule:nonzero;stroke:none"
             id="path74" /></g><g
           id="g76"
           transform="translate(194.9556,170.2578)"><path
             d="M 0,0 C 0,-1.002 0.035,-1.83 0.069,-2.521 H -1.796 L -1.9,-1.243 h -0.035 c -0.362,-0.605 -1.191,-1.469 -2.694,-1.469 -1.538,0 -2.936,0.916 -2.936,3.662 v 4.941 h 2.124 V 1.313 c 0,-1.399 0.449,-2.297 1.572,-2.297 0.847,0 1.399,0.604 1.623,1.14 0.07,0.19 0.121,0.414 0.121,0.657 V 5.891 H 0 Z"
             style="fill:#00a1ff;fill-opacity:1;fill-rule:nonzero;stroke:none"
             id="path78" /></g><path
           d="m 196.903,180 h 2.142 v -12.264 h -2.142 z"
           style="fill:#00a1ff;fill-opacity:1;fill-rule:nonzero;stroke:none"
           id="path80" /><path
           d="m 200.995,180 h 2.142 v -12.264 h -2.142 z"
           style="fill:#00a1ff;fill-opacity:1;fill-rule:nonzero;stroke:none"
           id="path82" /><g
           id="g84"
           transform="translate(204.9824,169.6885)"><path
             d="m 0,0 c 0.484,-0.294 1.399,-0.604 2.159,-0.604 0.933,0 1.348,0.379 1.348,0.932 0,0.569 -0.346,0.863 -1.382,1.227 -1.641,0.569 -2.332,1.467 -2.315,2.452 0,1.485 1.227,2.642 3.178,2.642 0.933,0 1.745,-0.241 2.229,-0.501 L 4.802,4.646 C 4.439,4.854 3.766,5.13 3.023,5.13 2.263,5.13 1.849,4.767 1.849,4.249 1.849,3.714 2.246,3.454 3.316,3.074 4.837,2.521 5.545,1.744 5.562,0.501 c 0,-1.521 -1.192,-2.644 -3.42,-2.644 -1.019,0 -1.934,0.26 -2.556,0.605 z"
             style="fill:#00a1ff;fill-opacity:1;fill-rule:nonzero;stroke:none"
             id="path86" /></g><g
           id="g88"
           transform="translate(214.3765,178.3076)"><path
             d="M 0,0 V -2.159 H 2.021 V -3.748 H 0 v -3.714 c 0,-1.019 0.276,-1.555 1.088,-1.555 0.397,0 0.587,0.035 0.829,0.104 l 0.035,-1.624 c -0.311,-0.12 -0.864,-0.225 -1.537,-0.225 -0.778,0 -1.434,0.277 -1.832,0.709 -0.449,0.484 -0.656,1.243 -0.656,2.349 v 3.956 h -1.209 v 1.589 h 1.209 v 1.555 z"
             style="fill:#00a1ff;fill-opacity:1;fill-rule:nonzero;stroke:none"
             id="path90" /></g><g
           id="g92"
           transform="translate(222.1123,171.8477)"><path
             d="m 0,0 c -1.503,0.034 -2.937,-0.294 -2.937,-1.572 0,-0.829 0.536,-1.209 1.209,-1.209 0.847,0 1.469,0.552 1.659,1.157 C -0.018,-1.469 0,-1.296 0,-1.157 Z m 2.072,-2.091 c 0,-0.76 0.035,-1.502 0.121,-2.02 H 0.276 L 0.138,-3.179 H 0.086 c -0.518,-0.656 -1.399,-1.123 -2.487,-1.123 -1.693,0 -2.643,1.227 -2.643,2.505 0,2.125 1.883,3.195 4.992,3.179 V 1.52 c 0,0.552 -0.224,1.468 -1.71,1.468 -0.829,0 -1.693,-0.259 -2.263,-0.622 l -0.414,1.382 c 0.622,0.38 1.71,0.742 3.04,0.742 2.694,0 3.471,-1.71 3.471,-3.541 z"
             style="fill:#00a1ff;fill-opacity:1;fill-rule:nonzero;stroke:none"
             id="path94" /></g><g
           id="g96"
           transform="translate(232.2646,167.9951)"><path
             d="m 0,0 c -0.449,-0.207 -1.33,-0.449 -2.384,-0.449 -2.625,0 -4.335,1.693 -4.335,4.302 0,2.521 1.727,4.49 4.681,4.49 0.777,0 1.572,-0.172 2.055,-0.397 l -0.38,-1.59 c -0.345,0.157 -0.846,0.329 -1.606,0.329 -1.624,0 -2.591,-1.192 -2.574,-2.729 0,-1.727 1.123,-2.712 2.574,-2.712 0.742,0 1.261,0.155 1.676,0.328 z"
             style="fill:#00a1ff;fill-opacity:1;fill-rule:nonzero;stroke:none"
             id="path98" /></g><g
           id="g100"
           transform="translate(235.6123,172.4521)"><path
             d="M 0,0 H 0.035 C 0.242,0.328 0.483,0.69 0.708,0.984 L 2.746,3.696 H 5.303 L 2.193,0.259 5.752,-4.716 H 3.144 L 0.726,-1.002 0,-1.849 V -4.716 H -2.125 V 7.548 H 0 Z"
             style="fill:#00a1ff;fill-opacity:1;fill-rule:nonzero;stroke:none"
             id="path102" /></g><g
           id="g104"
           transform="translate(246.1948,167.5459)"><path
             d="m 0,0 c -0.76,0 -1.295,0.588 -1.295,1.365 0,0.794 0.552,1.364 1.313,1.364 C 0.794,2.729 1.33,2.177 1.33,1.365 1.33,0.588 0.812,0 0.018,0 Z"
             style="fill:#00a1ff;fill-opacity:1;fill-rule:nonzero;stroke:none"
             id="path106" /></g><g
           id="g108"
           transform="translate(248.9741,167.7363)"><path
             d="M 0,0 V 11.642 H 2.418 L 5.423,6.65 C 6.201,5.354 6.875,4.008 7.41,2.746 H 7.444 C 7.306,4.301 7.254,5.804 7.254,7.583 v 4.059 H 9.223 V 0 H 7.03 L 3.99,5.13 C 3.247,6.391 2.47,7.824 1.9,9.138 L 1.848,9.12 C 1.935,7.617 1.952,6.08 1.952,4.163 V 0 Z"
             style="fill:#00a1ff;fill-opacity:1;fill-rule:nonzero;stroke:none"
             id="path110" /></g><g
           id="g112"
           transform="translate(266.8125,172.9014)"><path
             d="m 0,0 h -4.388 v -3.421 h 4.906 v -1.744 h -7.03 V 6.477 H 0.259 V 4.732 H -4.388 V 1.727 H 0 Z"
             style="fill:#00a1ff;fill-opacity:1;fill-rule:nonzero;stroke:none"
             id="path114" /></g><g
           id="g116"
           transform="translate(271.2471,177.5996)"><path
             d="M 0,0 H -3.316 V 1.778 H 5.476 V 0 H 2.124 V -9.863 H 0 Z"
             style="fill:#00a1ff;fill-opacity:1;fill-rule:nonzero;stroke:none"
             id="path118" /></g><g
           id="g120"
           transform="translate(283.0918,169.3604)"><path
             d="M 0,0 C 0.293,-0.052 0.742,-0.052 1.174,-0.052 3.938,-0.069 5.578,1.45 5.578,4.404 5.596,6.978 4.11,8.446 1.45,8.446 0.777,8.446 0.293,8.395 0,8.325 Z M -2.125,9.862 C -1.192,10.018 0,10.104 1.26,10.104 3.437,10.104 4.939,9.655 6.011,8.757 7.133,7.842 7.824,6.46 7.824,4.474 7.824,2.4 7.116,0.846 6.011,-0.156 4.854,-1.21 3.005,-1.745 0.742,-1.745 c -1.244,0 -2.176,0.069 -2.867,0.155 z"
             style="fill:#00a1ff;fill-opacity:1;fill-rule:nonzero;stroke:none"
             id="path122" /></g><g
           id="g124"
           transform="translate(297.5254,172.832)"><path
             d="M 0,0 C 0.018,0.777 -0.328,2.056 -1.744,2.056 -3.057,2.056 -3.609,0.863 -3.696,0 Z m -3.696,-1.485 c 0.051,-1.521 1.244,-2.177 2.591,-2.177 0.984,0 1.693,0.139 2.332,0.38 l 0.31,-1.468 c -0.724,-0.294 -1.726,-0.536 -2.935,-0.536 -2.73,0 -4.336,1.693 -4.336,4.266 0,2.333 1.416,4.526 4.111,4.526 2.746,0 3.627,-2.245 3.627,-4.094 0,-0.396 -0.034,-0.708 -0.069,-0.897 z"
             style="fill:#00a1ff;fill-opacity:1;fill-rule:nonzero;stroke:none"
             id="path126" /></g><g
           id="g128"
           transform="translate(302.1865,176.1484)"><path
             d="M 0,0 1.364,-4.267 C 1.606,-5.01 1.779,-5.683 1.935,-6.374 h 0.051 c 0.156,0.691 0.346,1.348 0.571,2.107 L 3.887,0 H 6.132 L 2.919,-8.412 H 0.829 L -2.297,0 Z"
             style="fill:#00a1ff;fill-opacity:1;fill-rule:nonzero;stroke:none"
             id="path130" /></g><g
           id="g132"
           transform="translate(314.2393,172.832)"><path
             d="M 0,0 C 0.018,0.777 -0.328,2.056 -1.744,2.056 -3.057,2.056 -3.609,0.863 -3.696,0 Z m -3.696,-1.485 c 0.051,-1.521 1.244,-2.177 2.591,-2.177 0.985,0 1.693,0.139 2.332,0.38 L 1.538,-4.75 c -0.725,-0.294 -1.727,-0.536 -2.936,-0.536 -2.73,0 -4.336,1.693 -4.336,4.266 0,2.333 1.416,4.526 4.111,4.526 2.746,0 3.627,-2.245 3.627,-4.094 0,-0.396 -0.034,-0.708 -0.069,-0.897 z"
             style="fill:#00a1ff;fill-opacity:1;fill-rule:nonzero;stroke:none"
             id="path134" /></g><path
           d="m 317.604,180 h 2.143 v -12.264 h -2.143 z"
           style="fill:#00a1ff;fill-opacity:1;fill-rule:nonzero;stroke:none"
           id="path136" /><g
           id="g138"
           transform="translate(323.3535,171.9336)"><path
             d="m 0,0 c 0,-1.624 0.795,-2.85 2.091,-2.85 1.209,0 2.055,1.192 2.055,2.884 C 4.146,1.348 3.559,2.85 2.107,2.85 0.604,2.85 0,1.399 0,0 m 6.34,0.086 c 0,-3.092 -2.177,-4.474 -4.319,-4.474 -2.383,0 -4.214,1.642 -4.214,4.336 0,2.764 1.813,4.456 4.352,4.456 2.505,0 4.181,-1.761 4.181,-4.318"
             style="fill:#00a1ff;fill-opacity:1;fill-rule:nonzero;stroke:none"
             id="path140" /></g><g
           id="g142"
           transform="translate(333.2119,171.2598)"><path
             d="m 0,0 c 0,-0.207 0.018,-0.397 0.069,-0.587 0.207,-0.864 0.967,-1.485 1.866,-1.485 1.347,0 2.141,1.122 2.141,2.78 0,1.486 -0.725,2.695 -2.09,2.695 -0.881,0 -1.692,-0.639 -1.9,-1.572 C 0.034,1.658 0,1.469 0,1.296 Z m -2.125,2.09 c 0,1.105 -0.034,2.004 -0.068,2.799 h 1.865 l 0.103,-1.296 h 0.035 c 0.622,0.95 1.606,1.485 2.884,1.485 1.935,0 3.541,-1.658 3.541,-4.283 0,-3.04 -1.917,-4.509 -3.834,-4.509 -1.053,0 -1.935,0.449 -2.367,1.123 H 0 v -4.352 h -2.125 z"
             style="fill:#00a1ff;fill-opacity:1;fill-rule:nonzero;stroke:none"
             id="path144" /></g><g
           id="g146"
           transform="translate(346.041,172.832)"><path
             d="M 0,0 C 0.018,0.777 -0.328,2.056 -1.744,2.056 -3.057,2.056 -3.609,0.863 -3.696,0 Z m -3.696,-1.485 c 0.051,-1.521 1.244,-2.177 2.591,-2.177 0.984,0 1.693,0.139 2.332,0.38 l 0.31,-1.468 c -0.724,-0.294 -1.726,-0.536 -2.935,-0.536 -2.73,0 -4.336,1.693 -4.336,4.266 0,2.333 1.416,4.526 4.111,4.526 2.746,0 3.627,-2.245 3.627,-4.094 0,-0.396 -0.034,-0.708 -0.069,-0.897 z"
             style="fill:#00a1ff;fill-opacity:1;fill-rule:nonzero;stroke:none"
             id="path148" /></g><g
           id="g150"
           transform="translate(349.4053,173.4365)"><path
             d="m 0,0 c 0,1.14 -0.017,1.952 -0.068,2.712 h 1.847 l 0.07,-1.607 h 0.069 c 0.414,1.192 1.398,1.796 2.297,1.796 0.207,0 0.328,-0.016 0.501,-0.051 V 0.847 C 4.543,0.881 4.354,0.915 4.094,0.915 3.075,0.915 2.384,0.259 2.194,-0.691 2.159,-0.881 2.125,-1.105 2.125,-1.348 V -5.7 H 0 Z"
             style="fill:#00a1ff;fill-opacity:1;fill-rule:nonzero;stroke:none"
             id="path152" /></g><g
           id="g154"
           transform="translate(135.605,228.1113)"><path
             d="M 0,0 29.798,-17.527 V -8.48 L 0.021,9.035 -31.831,-9.484 v -26.101 l 29.138,-14.569 v 8.719 l -21.341,10.67 v 16.792 z"
             style="fill:#00a1ff;fill-opacity:1;fill-rule:nonzero;stroke:none"
             id="path156" /></g><g
           id="g158"
           transform="translate(142.957,218.4648)"><path
             d="m 0,0 -3.289,-7.114 17.721,-10.515 v -14.748 l -22.627,-13.689 -31.096,15.069 v -8.666 l 31.507,-15.269 30.013,18.157 v 23.593 z"
             style="fill:#1c1c1c;fill-opacity:1;fill-rule:nonzero;stroke:none"
             id="path160" /></g><g
           id="g162"
           transform="translate(134.9932,224.5898)"><path
             d="M 0,0 -13.161,-28.533 -6.09,-31.822 6.857,-3.753 Z"
             style="fill:#1c1c1c;fill-opacity:1;fill-rule:nonzero;stroke:none"
             id="path164" /></g></g></g></g></svg>